<svg xmlns="http://www.w3.org/2000/svg" width="224.88" viewBox="0 0 224.88 60" height="60" version="1.0"><defs><clipPath id="a"><path d="M 179.261719 13.882812 L 199.316406 13.882812 L 199.316406 40.488281 L 179.261719 40.488281 Z M 179.261719 13.882812"/></clipPath></defs><g clip-path="url(#a)"><path fill="#FF1616" d="M 180.703125 39.535156 L 194.5 39.535156 L 194.5 40.488281 L 180.703125 40.488281 C 180.515625 40.488281 180.332031 40.449219 180.15625 40.378906 C 179.980469 40.304688 179.828125 40.203125 179.691406 40.070312 C 179.558594 39.933594 179.457031 39.78125 179.382812 39.605469 C 179.308594 39.433594 179.273438 39.25 179.273438 39.0625 L 179.273438 15.308594 C 179.273438 15.121094 179.308594 14.9375 179.382812 14.761719 C 179.457031 14.589844 179.558594 14.433594 179.691406 14.300781 C 179.828125 14.167969 179.980469 14.0625 180.15625 13.992188 C 180.332031 13.917969 180.515625 13.882812 180.703125 13.882812 L 195.96875 13.882812 C 196.15625 13.882812 196.339844 13.917969 196.515625 13.992188 C 196.691406 14.0625 196.84375 14.167969 196.980469 14.300781 C 197.113281 14.433594 197.21875 14.589844 197.289062 14.761719 C 197.363281 14.9375 197.398438 15.121094 197.398438 15.308594 L 197.398438 24.808594 L 196.445312 24.808594 L 196.445312 15.308594 C 196.445312 15.175781 196.398438 15.066406 196.304688 14.972656 C 196.210938 14.878906 196.097656 14.832031 195.96875 14.832031 L 180.703125 14.832031 C 180.574219 14.832031 180.460938 14.878906 180.367188 14.972656 C 180.273438 15.066406 180.226562 15.175781 180.226562 15.308594 L 180.226562 39.0625 C 180.226562 39.191406 180.273438 39.304688 180.367188 39.398438 C 180.460938 39.488281 180.574219 39.535156 180.703125 39.535156 Z M 188.8125 25.285156 L 188.8125 26.234375 L 192.152344 26.234375 L 192.152344 25.285156 Z M 194.535156 22.433594 L 188.8125 22.433594 L 188.8125 23.382812 L 194.535156 23.382812 Z M 186.429688 31.933594 L 182.613281 31.933594 C 182.480469 31.933594 182.367188 31.890625 182.277344 31.796875 C 182.183594 31.703125 182.136719 31.589844 182.136719 31.460938 L 182.136719 28.609375 C 182.136719 28.480469 182.183594 28.367188 182.277344 28.273438 C 182.367188 28.179688 182.480469 28.136719 182.613281 28.136719 L 186.429688 28.136719 C 186.558594 28.136719 186.671875 28.179688 186.765625 28.273438 C 186.859375 28.367188 186.90625 28.480469 186.90625 28.609375 L 186.90625 31.460938 C 186.90625 31.589844 186.859375 31.703125 186.765625 31.796875 C 186.671875 31.890625 186.558594 31.933594 186.429688 31.933594 Z M 185.953125 29.085938 L 183.089844 29.085938 L 183.089844 30.984375 L 185.953125 30.984375 Z M 188.8125 30.984375 L 188.8125 31.933594 L 192.152344 31.933594 L 192.152344 30.984375 Z M 193.582031 28.136719 L 188.8125 28.136719 L 188.8125 29.085938 L 193.582031 29.085938 Z M 188.8125 37.636719 L 192.152344 37.636719 L 192.152344 36.6875 L 188.8125 36.6875 Z M 193.582031 33.835938 L 188.8125 33.835938 L 188.8125 34.785156 L 193.582031 34.785156 Z M 186.90625 20.058594 C 186.90625 20.191406 186.859375 20.300781 186.765625 20.394531 C 186.671875 20.488281 186.558594 20.535156 186.429688 20.535156 L 182.613281 20.535156 C 182.480469 20.535156 182.367188 20.488281 182.277344 20.394531 C 182.183594 20.300781 182.136719 20.191406 182.136719 20.058594 L 182.136719 17.207031 C 182.136719 17.078125 182.183594 16.964844 182.277344 16.871094 C 182.367188 16.78125 182.480469 16.734375 182.613281 16.734375 L 186.429688 16.734375 C 186.558594 16.734375 186.671875 16.78125 186.765625 16.871094 C 186.859375 16.964844 186.90625 17.078125 186.90625 17.207031 Z M 185.953125 17.683594 L 183.089844 17.683594 L 183.089844 19.582031 L 185.953125 19.582031 Z M 188.8125 19.582031 L 188.8125 20.535156 L 192.152344 20.535156 L 192.152344 19.582031 Z M 194.535156 16.734375 L 188.8125 16.734375 L 188.8125 17.683594 L 194.535156 17.683594 Z M 199.304688 27.183594 L 199.304688 37.636719 C 199.304688 37.746094 199.269531 37.84375 199.207031 37.929688 L 197.335938 40.304688 C 197.242188 40.425781 197.117188 40.484375 196.964844 40.488281 C 196.8125 40.484375 196.691406 40.425781 196.597656 40.3125 L 194.652344 37.933594 C 194.578125 37.847656 194.539062 37.75 194.535156 37.636719 L 194.535156 27.183594 C 194.535156 26.996094 194.574219 26.8125 194.644531 26.640625 C 194.71875 26.464844 194.820312 26.3125 194.957031 26.175781 C 195.089844 26.042969 195.246094 25.941406 195.421875 25.867188 C 195.59375 25.796875 195.777344 25.757812 195.96875 25.757812 L 197.875 25.757812 C 198.066406 25.757812 198.246094 25.796875 198.421875 25.867188 C 198.597656 25.941406 198.753906 26.042969 198.886719 26.175781 C 199.023438 26.3125 199.125 26.464844 199.199219 26.640625 C 199.269531 26.8125 199.304688 26.996094 199.304688 27.183594 Z M 195.492188 28.136719 L 198.351562 28.136719 L 198.351562 27.183594 C 198.351562 27.054688 198.304688 26.941406 198.210938 26.847656 C 198.121094 26.757812 198.007812 26.710938 197.875 26.710938 L 195.96875 26.710938 C 195.835938 26.710938 195.722656 26.757812 195.628906 26.847656 C 195.539062 26.941406 195.492188 27.054688 195.492188 27.183594 Z M 198.351562 29.085938 L 195.492188 29.085938 L 195.492188 37.464844 L 196.957031 39.25 L 198.351562 37.46875 Z M 182.898438 26.140625 L 184.519531 24.929688 L 186.140625 26.140625 L 186.714844 25.378906 L 185.316406 24.335938 L 186.714844 23.289062 L 186.140625 22.527344 L 184.519531 23.742188 L 182.898438 22.527344 L 182.328125 23.289062 L 183.722656 24.335938 L 182.328125 25.378906 Z M 186.140625 33.929688 L 184.519531 35.140625 L 182.898438 33.929688 L 182.328125 34.691406 L 183.722656 35.734375 L 182.328125 36.78125 L 182.898438 37.539062 L 184.519531 36.328125 L 186.140625 37.539062 L 186.714844 36.78125 L 185.316406 35.734375 L 186.714844 34.691406 Z M 186.140625 33.929688"/></g><g><g><g><path d="M 7.695312 0.460938 C 12.789062 0.460938 15.09375 -2.738281 15.09375 -8.914062 L 15.09375 -18.96875 L 5.039062 -18.96875 L 5.039062 -15.691406 L 11.191406 -15.691406 L 11.191406 -8.914062 C 11.191406 -5.554688 10.8125 -2.898438 7.695312 -2.898438 C 4.578125 -2.898438 3.847656 -5.5 3.820312 -9.1875 L 0.136719 -9.1875 C 0.164062 -2.195312 2.980469 0.460938 7.695312 0.460938 Z M 7.695312 0.460938" transform="translate(27.178 37.776)"/></g></g></g><g><g><g><path d="M 8.535156 0.269531 C 12.4375 0.269531 16.3125 -2.167969 16.3125 -9.105469 L 16.3125 -18.96875 L 12.304688 -18.96875 L 12.304688 -9.105469 C 12.277344 -4.308594 10.378906 -2.898438 8.535156 -2.898438 C 6.640625 -2.898438 4.714844 -4.28125 4.714844 -9.105469 L 4.714844 -18.96875 L 0.675781 -18.96875 L 0.675781 -9.105469 C 0.675781 -2.167969 4.605469 0.269531 8.535156 0.269531 Z M 8.535156 0.269531" transform="translate(44.112 37.776)"/></g></g></g><g><g><g><path d="M 0.675781 0 L 8.15625 0 C 13.25 0 15.664062 -4.714844 15.691406 -9.457031 C 15.691406 -14.199219 13.277344 -18.96875 8.15625 -18.96875 L 0.675781 -18.96875 Z M 4.578125 -3.332031 L 4.578125 -15.664062 L 8.101562 -15.664062 C 11.027344 -15.664062 11.734375 -11.707031 11.761719 -9.457031 C 11.761719 -7.152344 11.054688 -3.332031 8.101562 -3.332031 Z M 4.578125 -3.332031" transform="translate(62.456 37.776)"/></g></g></g><g><g><g><path d="M 8.507812 0.542969 C 12.222656 0.542969 14.929688 -1.191406 16.015625 -4.742188 L 16.015625 -10.8125 L 7.234375 -10.8125 L 7.234375 -7.535156 L 12.4375 -7.535156 L 12.4375 -5.339844 C 11.761719 -3.496094 10.460938 -2.84375 8.480469 -2.84375 C 4.960938 -2.84375 4.226562 -6.773438 4.226562 -9.511719 C 4.226562 -12.304688 5.011719 -16.125 8.535156 -16.125 C 10.59375 -16.125 12.113281 -14.6875 12.761719 -12.816406 L 15.933594 -13.738281 L 15.933594 -13.875 C 14.578125 -18.265625 11.4375 -19.457031 8.507812 -19.457031 C 2.410156 -19.457031 0.164062 -14.929688 0.164062 -9.511719 C 0.164062 -4.066406 2.464844 0.542969 8.507812 0.542969 Z M 8.507812 0.542969" transform="translate(79.527 37.776)"/></g></g></g><g><g><g><path d="M 0.648438 0 L 13.144531 0 L 13.144531 -3.277344 L 4.578125 -3.277344 L 4.578125 -7.941406 L 12.789062 -7.941406 L 12.789062 -11.054688 L 4.578125 -11.054688 L 4.578125 -15.664062 L 13.144531 -15.664062 L 13.144531 -18.96875 L 0.648438 -18.96875 Z M 0.648438 0" transform="translate(97.356 37.776)"/></g></g></g><g fill="#FF1616"><g><g><path d="M -0.570312 0 L 3.304688 0 L 4.878906 -4.308594 L 11.894531 -4.308594 L 13.46875 0 L 17.34375 0 L 17.34375 -0.648438 L 10.160156 -19.078125 L 6.640625 -19.078125 L -0.570312 -0.648438 Z M 6.070312 -7.695312 L 7.585938 -11.789062 L 8.375 -14.417969 L 8.402344 -14.417969 L 9.1875 -11.789062 L 10.730469 -7.695312 Z M 6.070312 -7.695312" transform="translate(111.982 37.776)"/></g></g></g><g fill="#FF1616"><g><g><path d="M 0.675781 0 L 8.480469 0 C 12.355469 0 14.824219 -1.84375 14.824219 -5.90625 C 14.824219 -7.832031 13.496094 -9.703125 11.597656 -10.1875 C 13.144531 -11.027344 13.765625 -12.277344 13.765625 -13.929688 C 13.765625 -16.285156 11.894531 -18.96875 8.210938 -18.96875 L 0.675781 -18.96875 Z M 4.578125 -11.460938 L 4.578125 -15.664062 L 8.210938 -15.664062 C 9.347656 -15.664062 9.890625 -14.632812 9.890625 -13.601562 C 9.890625 -12.546875 9.347656 -11.460938 8.210938 -11.460938 Z M 4.578125 -3.359375 L 4.578125 -8.347656 L 8.480469 -8.347656 C 10.109375 -8.347656 10.921875 -7.101562 10.921875 -5.851562 C 10.921875 -4.632812 10.160156 -3.359375 8.480469 -3.359375 Z M 4.578125 -3.359375" transform="translate(129.947 37.776)"/></g></g></g><g fill="#FF1616"><g><g><path d="M 0.703125 0 L 13.167969 0 L 13.167969 -3.332031 L 4.632812 -3.332031 L 4.632812 -18.96875 L 0.703125 -18.96875 Z M 0.703125 0" transform="translate(146.123 37.776)"/></g></g><g fill="#FF1616"><g><g><path d="M 0.648438 0 L 13.144531 0 L 13.144531 -3.277344 L 4.578125 -3.277344 L 4.578125 -7.941406 L 12.789062 -7.941406 L 12.789062 -11.054688 L 4.578125 -11.054688 L 4.578125 -15.664062 L 13.144531 -15.664062 L 13.144531 -18.96875 L 0.648438 -18.96875 Z M 0.648438 0" transform="translate(160.356 37.776)"/></g></g></g></g></svg>